<?xml version="1.0" encoding="UTF-8"?>
<svg width="954px" height="800px" viewBox="0 0 954 800" version="1.1" xmlns="http://www.w3.org/2000/svg" xmlns:xlink="http://www.w3.org/1999/xlink">
    <!-- Generator: sketchtool 49.3 (51167) - http://www.bohemiancoding.com/sketch -->
    <title>D99D1E73-47DE-409F-895E-FE6038BAD6DF</title>
    <desc>Created with sketchtool.</desc>
    <defs></defs>
    <g id="Page-1" stroke="none" stroke-width="1" fill="none" fill-rule="evenodd" fill-opacity="0.0315047554">
        <g id="Home" transform="translate(-486.000000, 0.000000)" fill="#000000">
            <path d="M1503.32422,564.058611 C1503.32422,857.059884 1321.87165,1036.28148 1016.22819,1036.28148 C685.300359,1036.28148 486,831.775511 486,479.281593 C486,131.249623 685.300359,-74 1009.53527,-74 C1269.81559,-74 1464.654,79.9372173 1492.16935,298.572685 L1222.22147,298.572685 C1195.44978,203.384454 1115.13471,145.379126 1010.27893,145.379126 C855.598053,145.379126 764.128112,266.595389 764.128112,475.563302 C764.128112,688.249506 865.265608,816.902349 1022.17746,816.902349 C1145.62469,816.902349 1231.88903,744.02386 1239.32561,636.193442 L1240.06927,619.832965 L1043.74354,619.832965 L1043.74354,432.431135 L1503.32422,432.431135 L1503.32422,564.058611 Z" id="G"></path>
        </g>
    </g>
</svg>